#!OML:ASF E:\Style4\Style4.ASF
:FULLY-SPECIFIED
:DEGREES
2119
root -0.231352 18.0675 -0.987927 1.66035 -2.6314 3.44563
lowerback 1.95723 1.95027 -2.00558
upperback 0.0446188 2.53527 -1.80694
thorax -1.05581 1.27268 -0.80044
lowerneck 1.76084 -3.25264 -7.26397
upperneck 8.17385 -4.63102 4.72891
head 2.64435 -2.40784 2.7393
rclavicle 1.24427e-014 -3.56818e-014
rhumerus -87.6881 58.1128 -124.955
rradius 86.7276
rwrist -3.65617
rhand -6.09181 32.2483
rfingers 7.12502
rthumb 19.7441 3.23107
lclavicle 1.24427e-014 -3.56818e-014
lhumerus -85.7115 -63.6139 116.712
lradius 93.5777
lwrist -12.7048
lhand -12.4933 0.909236
lfingers 7.12502
lthumb 13.5816 30.4462
rfemur -5.45292 3.98722 15.2788
rtibia 21.9234
rfoot -17.2172 -15.7079
rtoes -11.2191
lfemur 1.43771 -3.765 -22.7649
ltibia 11.238
lfoot -14.7351 13.4706
ltoes -15.5418
2120
root -0.23161 18.0706 -0.991382 1.66677 -2.61338 3.42018
lowerback 1.98274 1.94676 -1.96431
upperback 0.0331829 2.53067 -1.78048
thorax -1.08122 1.27039 -0.797484
lowerneck 1.73467 -3.2552 -7.31151
upperneck 8.20636 -4.63785 4.79579
head 2.66475 -2.41113 2.77074
rclavicle -3.37934e-014 5.26779e-015
rhumerus -87.6671 58.0428 -124.9
rradius 86.7264
rwrist -3.57179
rhand -6.23677 32.3177
rfingers 7.12502
rthumb 19.6047 3.28617
lclavicle -3.37934e-014 5.26779e-015
lhumerus -85.7044 -63.5612 116.721
lradius 93.5365
lwrist -12.785
lhand -12.5332 0.842388
lfingers 7.12502
lthumb 13.5431 30.382
rfemur -5.43696 4.02948 15.3158
rtibia 21.8547
rfoot -17.1413 -15.7887
rtoes -11.2165
lfemur 1.40577 -3.76907 -22.7299
ltibia 11.2441
lfoot -14.6819 13.4247
ltoes -15.225
2121
root -0.231028 18.0726 -0.993869 1.70455 -2.60105 3.39471
lowerback 1.95513 1.93691 -1.92935
upperback 0.0244317 2.51929 -1.75706
thorax -1.07424 1.26459 -0.791811
lowerneck 1.62399 -3.22676 -7.29969
upperneck 8.30096 -4.59654 4.82363
head 2.71475 -2.38905 2.77795
rclavicle -1.03803e-014 -3.18055e-015
rhumerus -87.6446 58.0245 -124.875
rradius 86.7083
rwrist -3.52715
rhand -6.16298 32.3285
rfingers 7.12502
rthumb 19.6757 3.3042
lclavicle -1.03803e-014 -3.18055e-015
lhumerus -85.6948 -63.536 116.729
lradius 93.5266
lwrist -12.7947
lhand -12.4652 0.841169
lfingers 7.12502
lthumb 13.6087 30.3764
rfemur -5.46928 4.07019 15.3432
rtibia 21.8268
rfoot -17.1505 -15.7869
rtoes -10.9554
lfemur 1.37451 -3.77503 -22.6938
ltibia 11.2019
lfoot -14.6612 13.3987
ltoes -15.0989
2122
root -0.229748 18.0728 -0.996656 1.71809 -2.62578 3.39656
lowerback 1.96462 1.94182 -1.91083
upperback 0.0151415 2.52585 -1.74588
thorax -1.08879 1.26789 -0.791473
lowerneck 1.5789 -3.20693 -7.29919
upperneck 8.31341 -4.57013 4.86416
head 2.72682 -2.37453 2.79197
rclavicle -1.03492e-014 1.09332e-015
rhumerus -87.6073 57.9862 -124.84
rradius 86.6867
rwrist -3.49986
rhand -6.06682 32.3393
rfingers 7.12502
rthumb 19.7681 3.32454
lclavicle -1.03492e-014 1.09332e-015
lhumerus -85.6439 -63.4582 116.68
lradius 93.5332
lwrist -12.8116
lhand -12.5579 0.862791
lfingers 7.12502
lthumb 13.5193 30.4039
rfemur -5.48793 4.06866 15.3356
rtibia 21.81
rfoot -17.1065 -15.7918
rtoes -11.2247
lfemur 1.36214 -3.76332 -22.704
ltibia 11.1823
lfoot -14.6197 13.4625
ltoes -15.3877
